<svg width="206" height="35" viewBox="0 0 206 35" fill="none" xmlns="http://www.w3.org/2000/svg">
<g opacity="0.3" clip-path="url(#clip0_632:114)">
<path d="M68.3888 0.432129H62.8545V25.105H68.3888V0.432129Z" fill="white"/>
<path d="M141.96 0.432129H136.426V25.105H141.96V0.432129Z" fill="white"/>
<path d="M0 21.5185L3.2503 17.6728C5.49039 19.4876 7.86224 20.6543 10.7173 20.6543C12.9573 20.6543 14.319 19.7901 14.319 18.321V18.2346C14.319 16.8519 13.4405 16.1605 9.26779 15.0802C4.21662 13.8271 0.966317 12.4444 0.966317 7.5185V7.4321C0.966317 2.93828 4.61195 0 9.75096 0C13.3966 0 16.5151 1.12345 19.0627 3.15432L16.2077 7.25925C13.9676 5.74691 11.8153 4.83951 9.70703 4.83951C7.59871 4.83951 6.50063 5.79013 6.50063 7.00001V7.0864C6.50063 8.72838 7.55479 9.2469 11.9032 10.3271C16.9983 11.6234 19.8533 13.4383 19.8533 17.716V17.8025C19.8533 22.6852 16.0759 25.4506 10.6294 25.4506C6.85203 25.4506 3.0307 24.1543 0 21.5185Z" fill="white"/>
<path d="M83.9813 0.259277H78.8862L68.125 25.105H73.7911L76.0751 19.5741L78.0517 14.7778L81.3459 6.78398L84.6841 14.7778L82.5758 19.5741H86.6606L88.9446 25.105H94.7425L83.9813 0.259277Z" fill="white"/>
<path d="M143.233 0.432115H148.328L160.1 15.642V0.432115L165.546 0.30249V25.1049H160.847L148.68 9.41976V25.1049L143.277 25.2778L143.233 0.432115Z" fill="white"/>
<path d="M165.02 21.7778L168.489 17.9753C169.939 19.5309 171.301 20.4383 173.057 20.4383C175.122 20.4383 176.44 19.1852 176.44 16.3333V0.432115L182.106 0.30249V16.5926C182.106 19.5309 181.227 21.6914 179.734 23.2037C178.197 24.7161 175.956 25.4938 173.233 25.4938C169.324 25.4506 166.733 23.7654 165.02 21.7778Z" fill="white"/>
<path d="M194.888 0.259277H189.792L179.031 25.105H184.653L186.937 19.5741L188.914 14.7778L192.252 6.78398L195.59 14.7778L193.482 19.5741H197.567L199.851 25.105H205.605L194.888 0.259277Z" fill="white"/>
<path d="M59.4724 17.6296C57.4959 19.4012 55.739 20.5247 52.8839 20.5247C48.5795 20.5247 45.5927 16.9815 45.5927 12.7901V12.7037C45.5927 8.46912 48.6234 5.01233 52.8839 5.01233C55.3876 5.01233 57.3641 6.04938 59.2968 7.77778L62.8106 3.80246C60.4827 1.55555 57.6716 0 52.9279 0C47.8328 0 43.7479 2.50617 41.5957 6.26543C42.9134 8.12346 43.6601 10.3704 43.6601 12.7469C43.6601 15.1667 42.8695 17.4136 41.5518 19.2716C43.704 23.0309 47.7889 25.4938 52.7083 25.4938C57.5398 25.4938 60.3948 23.8086 62.9863 21.0864L59.4724 17.6296Z" fill="white"/>
<path d="M129.705 0.432129V15.642L117.978 0.432129H112.883V14.6914L118.329 24.9753V9.41978L130.452 25.105H135.152V0.432129H129.705Z" fill="white"/>
<path d="M110.071 20.179H100.408L100.452 0.30249H95.0497L94.918 25.1049H112.663L110.071 20.179Z" fill="white"/>
<g clip-path="url(#clip1_632:114)">
<path d="M22.8097 10.9326C22.434 11.1615 22.1242 11.4799 21.9095 11.8577C21.6947 12.2356 21.582 12.6606 21.582 13.0927C21.582 13.5247 21.6947 13.9497 21.9095 14.3276C22.1242 14.7054 22.434 15.0238 22.8097 15.2527C23.2992 17.0898 24.3998 18.7165 25.939 19.8776C27.4782 21.0387 29.3688 21.6687 31.3145 21.6687C33.2601 21.6687 35.1508 21.0387 36.6899 19.8776C38.2291 18.7165 39.3298 17.0898 39.8193 15.2527C40.1962 15.0247 40.5071 14.7067 40.7228 14.3287C40.9385 13.9507 41.0516 13.5253 41.0516 13.0927C41.0516 12.6601 40.9385 12.2346 40.7228 11.8566C40.5071 11.4786 40.1962 11.1606 39.8193 10.9326C39.3298 9.09552 38.2291 7.46885 36.6899 6.30771C35.1508 5.14656 33.2601 4.5166 31.3145 4.5166C29.3688 4.5166 27.4782 5.14656 25.939 6.30771C24.3998 7.46885 23.2992 9.09552 22.8097 10.9326V10.9326ZM31.3488 20.3151C29.8714 20.3269 28.4282 19.8811 27.227 19.0418C26.0257 18.2025 25.1285 17.013 24.6644 15.6445H37.9963C37.5493 17.0162 36.6615 18.2111 35.4643 19.0523C34.267 19.8934 32.824 20.3362 31.3488 20.3151V20.3151ZM26.4504 13.0978C26.4494 12.8419 26.5262 12.5914 26.671 12.3781C26.8159 12.1647 27.0224 11.9981 27.2643 11.8992C27.5063 11.8003 27.7728 11.7737 28.0303 11.8226C28.2878 11.8715 28.5246 11.9938 28.7108 12.1741C28.8971 12.3543 29.0243 12.5844 29.0765 12.8352C29.1287 13.086 29.1035 13.3462 29.0041 13.5831C28.9047 13.8199 28.7355 14.0226 28.518 14.1657C28.3005 14.3087 28.0443 14.3856 27.782 14.3866C27.6074 14.3873 27.4344 14.3543 27.2728 14.2896C27.1113 14.2249 26.9645 14.1297 26.8408 14.0094C26.717 13.8892 26.6189 13.7463 26.5519 13.589C26.4849 13.4317 26.4504 13.263 26.4504 13.0927V13.0978ZM33.5259 13.0978C33.5248 12.8404 33.6022 12.5886 33.7481 12.3741C33.894 12.1597 34.1019 11.9924 34.3455 11.8934C34.589 11.7945 34.8572 11.7683 35.116 11.8183C35.3748 11.8682 35.6125 11.9921 35.7991 12.1741C35.9856 12.356 36.1125 12.588 36.1638 12.8405C36.215 13.093 36.1881 13.3546 36.0867 13.5922C35.9853 13.8298 35.8138 14.0326 35.594 14.175C35.3742 14.3173 35.116 14.3928 34.8522 14.3918C34.6776 14.3918 34.5047 14.3581 34.3434 14.2928C34.1822 14.2274 34.0357 14.1317 33.9125 14.0109C33.7893 13.8902 33.6917 13.747 33.6253 13.5894C33.559 13.4318 33.5252 13.263 33.5259 13.0927V13.0978ZM37.9698 10.546H24.6115C25.0549 9.16603 25.9439 7.963 27.1458 7.11656C28.3477 6.27012 29.798 5.82568 31.2801 5.84961C32.7607 5.83967 34.2063 6.2886 35.4086 7.13169C36.6108 7.97479 37.5077 9.16851 37.9698 10.5408V10.546Z" fill="white"/>
<path d="M18.7988 13.0927V13.1597C18.7988 19.6913 24.0143 24.9754 31.28 24.9754C38.5457 24.9754 43.8351 19.6243 43.8351 13.1185V13.0514C43.8351 6.49403 38.6196 1.20996 31.3487 1.20996C24.0777 1.20996 18.7988 6.56105 18.7988 13.0927ZM42.1864 13.0927C42.1864 15.1912 41.5485 17.2427 40.3533 18.9875C39.1582 20.7323 37.4594 22.0921 35.472 22.895C33.4846 23.6978 31.2978 23.9076 29.1882 23.4978C27.0785 23.088 25.1408 22.0771 23.6202 20.5928C22.0995 19.1086 21.0642 17.2177 20.6452 15.1593C20.2262 13.1009 20.4423 10.9676 21.2662 9.02907C22.0901 7.09055 23.4848 5.43394 25.2738 4.26879C27.0629 3.10364 29.1659 2.48227 31.317 2.48329C34.1993 2.48739 36.9624 3.60664 39.0001 5.59554C41.0377 7.58445 42.1836 10.2806 42.1864 13.0927V13.0927Z" fill="white"/>
</g>
<path d="M112.839 27.179H115.826C116.353 27.179 116.836 27.2654 117.319 27.4814C117.802 27.6975 118.197 27.9567 118.549 28.3024C118.9 28.6481 119.164 29.0802 119.383 29.5123C119.603 29.9876 119.691 30.4629 119.691 30.9814C119.691 31.5 119.603 31.9753 119.383 32.4506C119.208 32.9259 118.9 33.3148 118.549 33.6604C118.197 34.0061 117.802 34.3086 117.319 34.5246C116.836 34.7407 116.353 34.8271 115.826 34.8271H112.839V27.179V27.179ZM114.859 33.1851H115.343C115.694 33.1851 116.001 33.1419 116.265 33.0123C116.528 32.8827 116.792 32.753 116.968 32.5802C117.143 32.4074 117.319 32.1481 117.407 31.8888C117.495 31.6296 117.539 31.3271 117.539 31.0246C117.539 30.7222 117.495 30.4197 117.363 30.1604C117.275 29.9012 117.099 29.6851 116.924 29.4691C116.748 29.2963 116.485 29.1234 116.221 29.037C115.957 28.9074 115.65 28.8642 115.299 28.8642H114.815V33.1851H114.859Z" fill="white"/>
<path d="M122.985 27.179H120.965V34.8703H122.985V27.179Z" fill="white"/>
<path d="M128.432 30.5928H132.472C132.472 30.9817 132.472 31.3705 132.429 31.7162C132.385 32.0619 132.341 32.3643 132.209 32.6236C132.077 33.0125 131.858 33.3582 131.638 33.7039C131.374 34.0063 131.111 34.2656 130.759 34.4817C130.408 34.6977 130.057 34.8273 129.661 34.957C129.266 35.0866 128.827 35.1298 128.388 35.1298C127.773 35.1298 127.246 35.0434 126.719 34.8274C126.235 34.6113 125.796 34.352 125.445 34.0064C125.093 33.6607 124.786 33.2286 124.61 32.7101C124.391 32.1915 124.303 31.673 124.303 31.0681C124.303 30.4631 124.391 29.9014 124.61 29.4261C124.786 28.9076 125.093 28.5187 125.445 28.1298C125.796 27.7841 126.235 27.4817 126.762 27.3088C127.29 27.0928 127.861 27.0063 128.475 27.0063C129.31 27.0063 130.013 27.1792 130.628 27.5249C131.243 27.8706 131.726 28.389 132.077 29.1236L130.145 29.9014C129.969 29.4693 129.749 29.1668 129.442 28.994C129.134 28.8212 128.827 28.7347 128.475 28.7347C128.168 28.7347 127.904 28.7779 127.641 28.9076C127.377 29.0372 127.202 29.1668 127.026 29.3829C126.85 29.5989 126.719 29.8582 126.631 30.1175C126.543 30.4199 126.499 30.7224 126.499 31.1113C126.499 31.4569 126.543 31.7595 126.631 32.0187C126.719 32.278 126.85 32.5372 127.026 32.7533C127.202 32.9693 127.421 33.0989 127.685 33.2286C127.948 33.3582 128.256 33.4014 128.563 33.4014C128.783 33.4014 128.959 33.3582 129.134 33.315C129.31 33.2718 129.486 33.1854 129.617 33.099C129.749 33.0125 129.881 32.8829 129.969 32.7101C130.057 32.5372 130.145 32.3644 130.145 32.1483H128.475V30.5928H128.432Z" fill="white"/>
<path d="M135.767 27.179H133.746V34.8703H135.767V27.179Z" fill="white"/>
<path d="M140.379 28.9073V34.8703H138.359V28.9073H136.689V27.179H142.048V28.9073H140.379Z" fill="white"/>
<path d="M147.362 33.5308H144.464L143.98 34.8703H141.828L144.815 27.179H147.011L149.998 34.8703H147.846L147.362 33.5308ZM146.835 32.0185L145.913 29.4691L144.991 32.0185H146.835Z" fill="white"/>
<path d="M152.896 27.179V33.1851H155.356V34.8703H150.876V27.179H152.896Z" fill="white"/>
<path d="M164.712 33.5308H161.813L161.33 34.8703H159.178L162.165 27.179H164.361L167.347 34.8703H165.195L164.712 33.5308ZM164.141 32.0185L163.219 29.4691L162.296 32.0185H164.141Z" fill="white"/>
<path d="M171.784 30.5928H175.825C175.825 30.9817 175.825 31.3705 175.781 31.7162C175.737 32.0619 175.693 32.3643 175.561 32.6236C175.43 33.0125 175.21 33.3582 174.99 33.7039C174.727 34.0063 174.463 34.2656 174.112 34.4817C173.761 34.6977 173.409 34.8273 173.014 34.957C172.619 35.0866 172.179 35.1298 171.74 35.1298C171.125 35.1298 170.598 35.0434 170.071 34.8274C169.588 34.6113 169.149 34.352 168.797 34.0064C168.446 33.6607 168.138 33.2286 167.963 32.7101C167.743 32.1915 167.655 31.673 167.655 31.0681C167.655 30.4631 167.743 29.9014 167.963 29.4261C168.138 28.9076 168.446 28.5187 168.797 28.1298C169.149 27.7841 169.588 27.4817 170.115 27.3088C170.642 27.0928 171.213 27.0063 171.828 27.0063C172.663 27.0063 173.365 27.1792 173.98 27.5249C174.595 27.8706 175.078 28.389 175.43 29.1236L173.497 29.9014C173.321 29.4693 173.102 29.1668 172.794 28.994C172.487 28.8212 172.179 28.7347 171.828 28.7347C171.521 28.7347 171.257 28.7779 170.993 28.9076C170.73 29.0372 170.554 29.1668 170.378 29.3829C170.203 29.5989 170.071 29.8582 169.983 30.1175C169.895 30.4199 169.851 30.7224 169.851 31.1113C169.851 31.4569 169.895 31.7595 169.983 32.0187C170.071 32.278 170.203 32.5372 170.378 32.7533C170.554 32.9693 170.774 33.0989 171.037 33.2286C171.301 33.3582 171.608 33.4014 171.916 33.4014C172.135 33.4014 172.311 33.3582 172.487 33.315C172.663 33.2718 172.838 33.1854 172.97 33.099C173.102 33.0125 173.234 32.8829 173.321 32.7101C173.409 32.5372 173.497 32.3644 173.497 32.1483H171.828V30.5928H171.784Z" fill="white"/>
<path d="M181.535 28.9073H179.119V30.1604H181.403V31.8456H179.119V33.1851H181.535V34.8703H177.099V27.179H181.535V28.9073Z" fill="white"/>
<path d="M182.984 34.8703V27.179H185.005L188.782 31.8888V27.179H190.759V34.8703H188.782L185.005 30.1604V34.8703H182.984Z" fill="white"/>
<path d="M198.138 29.7718C197.654 29.21 197.083 28.9076 196.381 28.9076C196.073 28.9076 195.81 28.9508 195.546 29.0804C195.283 29.21 195.063 29.3397 194.887 29.5125C194.712 29.6854 194.536 29.9014 194.448 30.1607C194.36 30.4199 194.272 30.6792 194.272 30.9817C194.272 31.2841 194.316 31.5866 194.448 31.8459C194.536 32.1051 194.712 32.3212 194.887 32.5372C195.063 32.71 195.283 32.8829 195.546 32.9693C195.81 33.0989 196.073 33.1422 196.381 33.1422C197.04 33.1422 197.611 32.8829 198.138 32.3212V34.6977L197.918 34.7841C197.611 34.9137 197.303 34.957 197.04 35.0434C196.776 35.0866 196.512 35.1298 196.249 35.1298C195.722 35.1298 195.195 35.0434 194.712 34.8274C194.228 34.6113 193.789 34.352 193.394 33.9632C192.999 33.6175 192.735 33.1854 192.472 32.6669C192.252 32.1483 192.12 31.6298 192.12 31.0249C192.12 30.4199 192.252 29.9014 192.472 29.3829C192.691 28.9076 192.999 28.4755 193.394 28.1298C193.789 27.7841 194.185 27.4817 194.712 27.3088C195.195 27.0928 195.722 27.0063 196.293 27.0063C196.6 27.0063 196.908 27.0496 197.215 27.0928C197.523 27.136 197.83 27.2656 198.182 27.3952V29.7718H198.138Z" fill="white"/>
<path d="M201.3 31.1975L198.445 27.179H200.905L202.354 29.2962L203.76 27.179H206.176L203.321 31.1975V34.8703H201.3V31.1975Z" fill="white"/>
</g>
<defs>
<clipPath id="clip0_632:114">
<rect width="206" height="35" fill="white"/>
</clipPath>
<clipPath id="clip1_632:114">
<rect width="25.0362" height="23.7654" fill="white" transform="translate(18.7988 1.20996)"/>
</clipPath>
</defs>
</svg>
